<?xml version="1.0" encoding="UTF-8"?>
<svg viewBox="0 0 696.46 446.58" xmlns="http://www.w3.org/2000/svg">
 <g transform="rotate(180 348.23 223.22)">
  <g transform="matrix(1 0 0 -1 0 446.9)">
   <rect x="44.248" y="39.392" width="610.86" height="275.81" rx="8.0878" ry="8.0878" fill="none" stroke="#000" stroke-linecap="round" stroke-width="4.115"/>
   <path d="m164.47 135.75c-12.244 0-22.094 9.8498-22.094 22.094v76.906c0 12.244 9.8498 22.094 22.094 22.094h374.84c12.244 0 22.094-9.8498 22.094-22.094v-76.906c0-12.244-9.8497-22.094-22.094-22.094h-374.84zm114.88 22.969h146.78c4.4091 0 7.9375 3.5597 7.9375 7.9688v71.625c0 4.4091-3.5284 7.9375-7.9375 7.9375h-146.78c-4.4091 0-7.9688-3.5284-7.9688-7.9375v-71.625c0-4.4091 3.5597-7.9688 7.9688-7.9688z" stroke="#fff" stroke-width="2.6"/>
   <rect x="1.8919" y="2.2108" width="692.68" height="442.8" rx="27.333" ry="27.333" fill="none" stroke="#000" stroke-linecap="round" stroke-width="3.784"/>
   <g stroke="#fff">
    <path d="m250.77 201.3c0 24.462-19.831 44.293-44.293 44.293s-44.293-19.831-44.293-44.293 19.831-44.293 44.293-44.293 44.293 19.831 44.293 44.293z" fill="none" stroke-linecap="round" stroke-width="12.671"/>
    <g fill="#fff">
     <rect x="164.81" y="198.77" width="12.738" height="7.8723"/>
     <rect x="234.22" y="198.77" width="12.738" height="7.8723"/>
     <rect transform="rotate(48.548)" x="247.15" y="-24.054" width="12.738" height="7.8723"/>
     <rect transform="rotate(48.548)" x="316.56" y="-24.054" width="12.738" height="7.8723"/>
     <rect transform="rotate(-53.045)" x="-79.291" y="282.45" width="12.738" height="7.8723"/>
     <rect transform="rotate(-53.045)" x="-9.8767" y="282.45" width="12.738" height="7.8723"/>
    </g>
    <path d="m545.15 201.3c0 24.462-19.831 44.293-44.293 44.293s-44.293-19.831-44.293-44.293 19.831-44.293 44.293-44.293 44.293 19.831 44.293 44.293z" fill="none" stroke-linecap="round" stroke-width="12.671"/>
    <g fill="#fff">
     <rect x="459.19" y="198.77" width="12.738" height="7.8723"/>
     <rect x="528.61" y="198.77" width="12.738" height="7.8723"/>
     <rect transform="rotate(48.548)" x="442.03" y="-244.7" width="12.738" height="7.8723"/>
     <rect transform="rotate(48.548)" x="511.44" y="-244.7" width="12.738" height="7.8723"/>
     <rect transform="rotate(-53.045)" x="97.689" y="517.7" width="12.738" height="7.8723"/>
     <rect transform="rotate(-53.045)" x="167.1" y="517.7" width="12.738" height="7.8723"/>
    </g>
   </g>
   <g fill="none" stroke="#000">
    <rect x="64.573" y="47.34" width="573.74" height="68.955" stroke-linecap="round" stroke-width="4.115"/>
    <path d="m159.17 65.905h463.24"/>
    <path d="m159.17 87.905h463.24"/>
    <g stroke-linecap="round">
     <path d="m101.24 401.17c0 13.915-11.28 25.195-25.195 25.195s-25.195-11.28-25.195-25.195 11.28-25.195 25.195-25.195 25.195 11.28 25.195 25.195z" stroke-width="4.115"/>
     <path d="m79.413 401.9c0 1.459-1.1827 2.6416-2.6416 2.6416-1.459 0-2.6417-1.1827-2.6417-2.6416s1.1827-2.6416 2.6417-2.6416c1.4589 0 2.6416 1.1827 2.6416 2.6416z" stroke-width="23.768"/>
     <path d="m651.11 401.17c0 13.915-11.28 25.195-25.195 25.195s-25.195-11.28-25.195-25.195 11.28-25.195 25.195-25.195 25.195 11.28 25.195 25.195z" stroke-width="4.115"/>
     <path d="m629.29 401.9c0 1.459-1.1827 2.6417-2.6416 2.6417s-2.6416-1.1827-2.6416-2.6417c0-1.4589 1.1827-2.6416 2.6416-2.6416s2.6416 1.1827 2.6416 2.6416z" stroke-width="23.768"/>
    </g>
    <path d="m113.2 445.16s15.519-89.503 26.522-104.32c6.75-9.088 413-4.918 419.92-0.884 10.608 6.188 29.173 105.2 29.173 105.2h-475.62z" stroke-width="3.4"/>
    <g stroke-linecap="round">
     <g stroke-width="3.4">
      <path d="m202.48 420.85c0 8.5442-6.9265 15.471-15.471 15.471-8.5442 0-15.471-6.9265-15.471-15.471 0-8.5442 6.9264-15.471 15.471-15.471 8.5443 0 15.471 6.9265 15.471 15.471z"/>
      <path d="m539.3 420.85c0 8.5442-6.9265 15.471-15.471 15.471-8.5442 0-15.471-6.9265-15.471-15.471 0-8.5442 6.9264-15.471 15.471-15.471 8.5442 0 15.471 6.9265 15.471 15.471z"/>
      <path d="m464.16 408.47c0 8.5442-6.9264 15.471-15.471 15.471-8.5442 0-15.471-6.9265-15.471-15.471 0-8.5442 6.9264-15.471 15.471-15.471 8.5443 0 15.471 6.9265 15.471 15.471z"/>
      <path d="m270.56 407.59c0 8.5442-6.9265 15.471-15.471 15.471-8.5442 0-15.471-6.9265-15.471-15.471 0-8.5442 6.9265-15.471 15.471-15.471 8.5442 0 15.471 6.9265 15.471 15.471z"/>
     </g>
     <g stroke-width="6.308">
      <path d="m436.72 252.73c-28.572 0-51.754-23.159-51.754-51.732s23.181-51.732 51.754-51.732c0.10327 0 0.20355-5.95e-4 0.30664 0v103.46c-0.10309 5.95e-4 -0.20337 0-0.30664 0z"/>
      <path d="m264.16 252.73c28.573 0 51.754-23.159 51.754-51.732s-23.181-51.732-51.754-51.732c-0.10324 0-0.20352-5.95e-4 -0.30661 0v103.46c0.10309 5.95e-4 0.20337 0 0.30661 0z"/>
     </g>
    </g>
   </g>
   <path d="m37.649 23.471c0 6.1248-4.9651 11.09-11.09 11.09-6.1248 0-11.09-4.9651-11.09-11.09 0-6.1248 4.9651-11.09 11.09-11.09 6.1248 0 11.09 4.9651 11.09 11.09z" fill="none" stroke="#000" stroke-linecap="round" stroke-width="4.376"/>
   <path d="m19.801 25.651l5.0885 0.1106v4.9779l3.208-0.1106-0.2212-4.9779 4.9779-0.2212-0.1106-2.6549-4.9779 0.1106-0.2212-5.9735-2.7655 0.2212 0.2212 5.8629h-5.1991v2.6549-1e-5z"/>
   <path d="m677.7 23.471c0 6.1248-4.9652 11.09-11.09 11.09s-11.09-4.9651-11.09-11.09c0-6.1248 4.9651-11.09 11.09-11.09 6.1248 0 11.09 4.9651 11.09 11.09z" fill="none" stroke="#000" stroke-linecap="round" stroke-width="4.376"/>
   <path d="m660.22 25.61l5.0885 0.1106v4.9779l3.208-0.1106-0.2213-4.9779 4.9779-0.2212-0.1107-2.6549-4.9778 0.1106-0.2213-5.9735-2.7655 0.2212 0.2213 5.8629h-5.1992v2.6549z"/>
   <path d="m35.869 423.33c0 6.1248-4.9651 11.09-11.09 11.09-6.1248 0-11.09-4.9652-11.09-11.09s4.9651-11.09 11.09-11.09c6.1248 0 11.09 4.9651 11.09 11.09z" fill="none" stroke="#000" stroke-linecap="round" stroke-width="4.376"/>
   <path d="m18.395 425.47l5.0885 0.1106v4.9779l3.208-0.1106-0.2213-4.9779 4.9779-0.2212-0.1107-2.6549-4.9778 0.1106-0.2213-5.9735-2.7655 0.2213 0.2212 5.8629h-5.1992v2.6549z"/>
   <path d="m681.89 425.1c0 6.1248-4.9651 11.09-11.09 11.09-6.1248 0-11.09-4.9651-11.09-11.09 0-6.1248 4.9652-11.09 11.09-11.09s11.09 4.9651 11.09 11.09z" fill="none" stroke="#000" stroke-linecap="round" stroke-width="4.376"/>
   <path d="m664.42 427.24l5.0885 0.1106v4.9779l3.208-0.1106-0.2213-4.9779 4.9779-0.2212-0.1107-2.6549-4.9778 0.1106-0.2213-5.9735-2.7655 0.2213 0.2213 5.8629h-5.1992v2.6549z"/>
  </g>
 </g>
</svg>
